<?xml version="1.0" encoding="utf-8"?>
<!-- Generator: Adobe Illustrator 19.2.1, SVG Export Plug-In . SVG Version: 6.00 Build 0)  -->
<svg version="1.1" id="Capa_1" xmlns="http://www.w3.org/2000/svg" xmlns:xlink="http://www.w3.org/1999/xlink" x="0px" y="0px"
	 viewBox="0 0 710.2 121.3" style="enable-background:new 0 0 710.2 121.3;" xml:space="preserve">
<g>
	<path d="M108.7,9.5C99.6,3.3,86.4,0,68.9,0H22.3L0,121h43.6l8.2-44L65,121h44.9L92.4,74.7c9.5-2,16.8-6.3,22-12.9
		c5.2-6.6,7.8-15.1,7.8-25.1C122.2,24.7,117.7,15.6,108.7,9.5z M74,50.8c-3.1,2.2-8,3.2-14.7,3.2H56l4.4-24H63
		c5.5,0,9.4,1.1,11.9,2.7c2.5,1.6,3.8,4.3,3.8,7.8C78.7,45.1,77.1,48.6,74,50.8z"/>
	<polygon points="205.5,76 211.1,45 174,45 176.2,33 215.6,33 221.6,0 138.6,0 116.3,121 203,121 209,89 166,89 168.4,76 	"/>
	<polygon points="269.1,48 271.8,33 307.7,33 313.8,0 233.6,0 211.3,121 255.5,121 263.2,80 297.4,80 303.3,48 	"/>
	<polygon points="389,76 394.6,45 357.5,45 359.7,33 399.1,33 405.1,0 322.1,0 299.8,121 386.5,121 392.5,89 349.5,89 351.9,76 	"/>
	<path d="M503.4,9.5c-9-6.2-22.3-9.5-39.7-9.5h-46.6l-22.3,121h43.6l8.2-44l13.1,44h44.9l-17.4-46.3c9.5-2,16.8-6.3,22-12.9
		c5.2-6.6,7.8-15.1,7.8-25.1C517,24.7,512.5,15.6,503.4,9.5z M468.7,50.8c-3.1,2.2-8,3.2-14.7,3.2h-3.2l4.4-24h2.6
		c5.5,0,9.4,1.1,11.9,2.7c2.5,1.6,3.8,4.3,3.8,7.8C473.4,45.1,471.9,48.6,468.7,50.8z"/>
	<polygon points="710.2,89 691.7,89 691.7,89 654.3,89 656.7,76 693.7,76 699.3,45 662.2,45 664.4,33 703.9,33 709.8,0 626.8,0 
		611.7,89 559.3,89 561.7,76 598.7,76 604.3,45 567.2,45 569.5,33 608.9,33 614.8,0 531.9,0 509.6,121 643.4,121 643.4,121 
		649.7,121 683.9,121 684,121 687,121.3 	"/>
</g>
</svg>
