<?xml version="1.0" encoding="utf-8"?>
<!-- Generator: Adobe Illustrator 19.2.1, SVG Export Plug-In . SVG Version: 6.00 Build 0)  -->
<svg version="1.1" id="Capa_1" xmlns="http://www.w3.org/2000/svg" xmlns:xlink="http://www.w3.org/1999/xlink" x="0px" y="0px"
	 viewBox="0 0 136.1 26.7" style="enable-background:new 0 0 136.1 26.7;" xml:space="preserve">
<style type="text/css">
	.st0{fill:#FFFFFF;}
</style>
<g>
	<path class="st0" d="M74.8,8.8c-2-0.2-3.8,0.4-5.3,2.2v-0.6l0,0V0.7V0.6V0l-5.4,0.7v25.5h5.4v-1.5c0.7,0.5,1.4,1.1,2.3,1.4
		c3.2,1.1,7.3,0.2,8.8-4c0.9-2.7,0.9-5.5,0.2-8.2C80,10.8,78,9.1,74.8,8.8z M75.6,19.9c-0.2,1.7-1.6,2.6-3.2,2.4
		c-0.4,0-0.8-0.1-1.1-0.2c-1.3-0.7-1.7-2-1.8-2.7c0,0,0,0,0,0c-0.1-1.2-0.2-3.7,0.4-4.9c0.5-0.9,1.4-1.4,2.5-1.4
		c1.6-0.1,2.9,0.8,3.1,2.4C75.8,16.9,75.8,18.4,75.6,19.9z"/>
	<path class="st0" d="M94,9.1c-1.9-0.5-3.8-0.5-5.7,0c-2.8,0.7-4.7,2.5-5.3,5.4c-0.3,1.5-0.4,3.2-0.3,4.8c0.2,3.6,2.4,6.2,5.9,7
		c0,0,0.1,0,0.1,0h0c0,0,0,0,0,0c0.1,0,0.3,0.1,0.4,0.1c0,0,0.1,0,0.1,0c0,0,0,0,0,0c0.2,0,0.4,0.1,0.6,0.1c0.7,0.1,1.5,0.1,2.3,0
		c0,0,0,0,0,0c0,0,0.1,0,0.1,0c3.6-0.2,6.3-2.5,7.1-5.9c0.4-1.9,0.4-3.8,0-5.7C98.8,11.8,97,9.9,94,9.1z M94.2,19.6
		c0,0.1,0,0.2-0.1,0.3c-0.4,1.6-1.5,2.5-3.1,2.4c-1.7-0.1-2.8-1-3-2.7c-0.1-1.2-0.1-2.5,0-3.7c0.2-1.9,1.4-3,3.2-2.9
		c1.5,0,2.5,0.9,2.9,2.3C94.5,16.7,94.3,19.3,94.2,19.6z"/>
	<path class="st0" d="M12.7,9H8.8V6.4c0.3-2.4,4.3-2,4.3-2l0-0.2l0,0v-4h0v0h0c-0.1,0-8-1.9-9.5,4.1c0,0,0,0,0,0c0,0,0,0,0,0
		C3.3,5.2,3.3,8.6,3.4,9H0v4.6h3.6V26h5.2V13.6h4L13.1,9L12.7,9z"/>
	<path class="st0" d="M25.1,11.2c-0.1-0.1-0.1-0.1-0.2-0.2v0c0,0,0,0,0,0c-0.1-0.1-0.1-0.1-0.1-0.1l0,0C23.5,9.6,23,9.3,22.1,9
		c-3.7-1.1-7.3,0.8-8.4,4.5c-0.7,2.3-0.7,4.6-0.3,6.9c0.9,5,4.6,6.7,8.5,5.8c1.2-0.3,2.1-1,2.9-2.1c0,0,0.1-0.1,0.2-0.3v2.2h5.1V9
		h-5.1L25.1,11.2L25.1,11.2z M24.6,19.8c-0.2,1.6-1.5,2.5-3,2.5c-1.6-0.1-2.6-0.9-2.9-2.4c-0.4-2.1,0.1-4.6,0.1-4.8
		c0.4-1.4,1.4-2.1,3-2.1c1.5,0,2.6,0.9,2.8,2.5C24.8,16.9,24.8,18.4,24.6,19.8z"/>
	<path class="st0" d="M45.6,24.9c-0.2-0.9-0.5-1.7-0.8-2.5l-0.2-0.9c0,0-6.3,3-7.3-2.7c-0.1-1-0.1-1.9,0.1-2.9
		c0.2-1.8,1.3-2.7,3.1-2.9c0.6-0.1,1.2,0,1.8,0.1c0.8,0.1,1.6,0.4,2.4,0.6c0.3-0.9,0.6-1.8,0.9-2.7c0-0.1,0.1-0.3,0.1-0.4h0l0.1-0.5
		c0-0.1-0.1-0.1-0.2-0.2c0,0,0,0,0,0c-0.1-0.1-0.4-0.2-0.8-0.4c-0.2-0.1-0.3-0.1-0.5-0.2C44,9.2,44,9.2,44,9.2h0
		c-1.7-0.5-3.4-0.5-5.1-0.3c-3.7,0.4-6.1,2.5-6.8,6.1c-0.4,1.9-0.3,3.8,0.1,5.7c0.6,2.8,2.3,4.6,5.1,5.5c1.8,0.5,3.7,0.6,5.5,0.3
		c0.8-0.1,1.9-0.5,2.7-0.8l0.3-0.1L45.6,24.9L45.6,24.9z"/>
	<path class="st0" d="M62.2,18.2c0-1.2,0-2.4-0.2-3.5c-0.5-3.2-2.4-5.2-5.6-5.7c-1.2-0.2-2.5-0.2-3.7-0.1c-3.3,0.3-5.9,2.4-6.4,5.5
		c-0.3,1.9-0.4,3.9-0.1,5.8c0.4,2.9,1.8,4.7,4.2,5.6c0,0,0,0,0,0c0,0,0,0,0,0c0,0,0,0,0,0c1.1,0.3,6.5,1.7,11.3-0.6l-0.2-0.7
		c0,0,0,0,0,0c-0.2-0.9-0.5-1.9-0.7-2.8l0-0.1c0,0-0.1,0-0.3,0.1c0,0,0,0,0,0c-0.2,0.1-0.4,0.1-0.6,0.2c0,0-0.1,0-0.1,0
		c-0.7,0.2-1.8,0.5-2.8,0.6c-0.9,0.1-1.8,0.1-2.8,0c-1.5-0.3-2.7-1.1-2.6-3h0.9c3,0,5.9,0,8.9,0c0.1,0,0.1,0,0.2,0l0,0
		c0,0,0.6,0,0.7,0c0,0,0-0.2,0-0.2L62.2,18.2z M57.4,15.9h-5.9c0-1.2,0.2-2.2,1.2-2.9c1.1-0.7,2.3-0.7,3.4-0.1
		C57.3,13.5,57.4,14.7,57.4,15.9z"/>
	<polygon class="st0" points="136.1,9.2 130.3,9.2 125.4,17 125.4,0.7 125.4,0.6 125.4,0 119.9,0.6 119.9,26.2 125.4,26.2 
		125.4,18.4 130.3,26.2 136.1,26.2 130.7,17.7 	"/>
	<path class="st0" d="M112.5,9.1c-1.9-0.5-3.8-0.5-5.7,0c-2.8,0.7-4.7,2.5-5.3,5.4c-0.3,1.5-0.4,3.2-0.3,4.8c0.2,3.6,2.4,6.2,5.9,7
		c0,0,0.1,0,0.2,0h0c0,0,0,0,0,0c0.1,0,0.3,0.1,0.4,0.1c0,0,0.1,0,0.1,0c0,0,0,0,0,0c0.2,0,0.4,0.1,0.6,0.1c0.7,0.1,1.5,0.1,2.3,0
		c0,0,0,0,0,0c0,0,0.1,0,0.1,0c3.6-0.2,6.3-2.5,7.1-5.9c0.4-1.9,0.4-3.8,0-5.7C117.3,11.8,115.5,9.9,112.5,9.1z M112.7,19.6
		c0,0.1,0,0.2-0.1,0.3c-0.4,1.6-1.5,2.5-3.1,2.4c-1.7-0.1-2.8-1-3-2.7c-0.1-1.2-0.1-2.5,0-3.7c0.2-1.9,1.4-3,3.2-2.9
		c1.5,0,2.5,0.9,2.9,2.3C113,16.7,112.7,19.2,112.7,19.6z"/>
</g>
</svg>
