<svg id="Layer_1" data-name="Layer 1" xmlns="http://www.w3.org/2000/svg" viewBox="0 0 518.06 271.32"><title>mapa99999</title><path d="M561.31,324.2c1.19-1.29,1.19-2.88,2.18-3.87a14.18,14.18,0,0,1,1.61-1.22c-1.15-.54-1.31-2.34-2.07-3s-3.18.46-3.24,1.12,1,1.65.33,1.72-2.25.93-3,.07-1.79-1.32-1.85-2.38-1.52-4-2.32-5.49-4.23-3.38-4.17-4.43-1.26-2.25-.73-2.58,1.46,0.26,1.46-.33-1.52-1.79-.4-2.05,2.65,0.73,2.38-.6-1.72-1.52-1.65-2.12-1.19-4.43-.46-4.76,4.23,3.64,4.23,2.25-1.59-3.84-1.59-4.9,0.46-5,1.06-6.15,1.06-2.51,2.71-2.65,5.89,0.4,5-1-3.71-3.24-3.71-4a26.05,26.05,0,0,0-.79-5.62c-0.46-1.06-2.12-3.51-2.12-4.37a4.78,4.78,0,0,0-.66-2.58,1.26,1.26,0,0,1-.46-1.85c0.33-.78-0.16-1.83-0.49-2.79a11.91,11.91,0,0,0-2.43,1.2c-1.09.5-1.39-1.09-2.28-1.19s-1.39,1.19-1.39,2.78a4,4,0,0,1-1.39,3.18c-0.89,1,.5,1.39.3,2.58s-1.29,4.37-2.68,4.86-1.29-.2-2.38-0.5-0.89,1.19-2.28,1.19-1.39,1.39-2.68,2.38-3-3.57-3.08-4.67-0.5-1-2.38-.5-1,.89-2.68.89-2,.69-2.08,1.79-2.08.3-3.08,1.89-1.69,2-2,2.88-2.28.79-3.08,1.39,0.2,1,.6,1.79-2.68.5-3.28,1.39-1.19,2-.4,3.18a2.29,2.29,0,0,0,.58.61c-1.62,1.57-2.56,3.4-3,3.66-0.6.4-1.29-.6-3.28-0.2s-1.09,1.39-1.79,2.18-2.58,0-3.87.3-1.89,1.69-3,2-2.48-3.18-3.37-3a15.9,15.9,0,0,0-2.89,1.39,2.1,2.1,0,0,1-.49-0.59c-0.79-1.39-.6-2.28-1.89-2.88s-3.18,1.19-3.87.69-1.89-1-2.48-1.49,0.5-1.49-.1-1.79-2.18-.6-2.18-1.69a20.07,20.07,0,0,1,1.09-5c0.4-.89,1.19-1.49,1.39-2.18s-0.5-1.59.2-2.18,1.89-1.59,1.89-2.48-1.49-1.89-2.48-2.18-0.6-1.29-1.09-1.19-1.19.79-1.39,0.3,0.2-1.19-.6-1.19-1.09,1-2.38,0l-1.46-1.14a6.62,6.62,0,0,0-.69,2.37c0,0.53-4,3.37-5,2.85s-1.79-2.38-2.45-2.85-4.7-1.59-7.41.73-6.49,11.25-7.15,12.11-2.65,3.18-3.24,2.45-2.65-1.72-3.44-1.19-0.79,1.92-1.32,1.59-0.73-.79-1.19-0.66-1.06,1.46-1.52,1.26-0.66-.79-1-0.6-1.06,2-1.59,1.12a1.28,1.28,0,0,1,.4-1.92c0.6-.33.79-0.66,0.2-1.13s-2.91-.93-3.44-0.33-3.37,2.45-3.77,3.11,1.32,5.49.86,6.42-0.59,2.58-1.46,1.92-1.39-.79-0.79-1.46,1.12-.79.86-1.39-1.26-1.65-1.85-1.59-2.12,2.32-2.38,1.92-1.06-1.85-.46-2,4-1.65,3.64-2.32-2.85.66-3.9,1.32-5.49,4.5-6.75,4.57-3.44.53-3,1.26,1.65,0.33,1.59,1.19,0.13,1.06-.53,1.65-1.52,1.52-1.26,2.25,1.39,2.91,1.39,2.05,0.79-2.65.86-1.92-0.33,1.65.79,2.38,2.52,2,3,2-0.79,2.12-1.46,1.85-1.65-.66-2-0.33-0.33,1.26-.66,1.52,1.59,0.79,1.59,1.52,0.93,1.72-.33,1.26-5.62.46-6.22,0.79-1.19,3.57-1.59,3.84-3,1.46-4,.73-2.05-1.92-2.32-1.32,0.46,2.71,1.06,4.23,0.79,6.29.13,6-0.66-.73-1.26-0.79-1.19.79-1.59,0.6-4.43-2.25-4.76-3.11-1.59-.33-2.38-0.93-3.18-2.18-2.71-2.51,1.32,1.06,1.92-.07,1.46-1.85.07-2.65-3.11,1.19-2.71-.13,0.93-1.85.66-2.32-2.51.6-2.51-.46,1.14-1.64,0-2.18-1.85.2-2.65-.4-0.86-1-1.46-.93-1.59,1.13-2.05,1.26,0.53,1.85-.2,1.46-1.19-1-1.46-.73-0.33,1.85-1,1.39-2.78-1.26-3.57-1-0.4,1.52-1.06,1.59,0.79,2.91,1.06,3.31-0.07,2.78-.4,2.78-4.17,2.32-4.63,2.32-1.59-.79-2.12-0.66-0.4,1.52-.86,1.52-3-.07-3.37-1,0.53-1.59,0-2a2.69,2.69,0,0,0-2.51.26c-0.73.46-5.16,0.93-5.62,0.93s-1.85,2.65-2.51,2.78-0.13,2.91-.79,2.05a17,17,0,0,1-1.32-3c-0.4-.79-0.33-1.65-0.79-1.26s-0.07,1.72-.53,1.85-3.44.6-3.44,0.07,0.9-1.55.51-1.7l0,0c-0.53-.07-1.65.73-2.12,0.73a5.76,5.76,0,0,0-2.25.33c-0.2.26-.79,2.12,0,2.12s2.58-.86,2.51-0.26-0.6,2.58-1.19,2.71-0.86-.46-1.39.2-2.91,3.9-4,3.9-2.12-.2-2.45.4-0.79,4-1.19,3.44-0.13-3,.2-3.71,1.52-.79,1.59-1.39-0.26-1.85.53-2.32,1.72,0.07,1.92-1.13a10.49,10.49,0,0,1,1.52-4c0.66-.73,1.59-1.06,1.46-1.72s-1.19-.4-0.4-1,1.65-2.71,2.51-3.51,1.39-1.12,1.39-2.32,2.18-3.71,1.85-4.9-2.51-.86-1.79-1.46,0.6-2.12.46-2.58a6.31,6.31,0,0,0-2.25-2.78c-1.06-.53-0.73,1.06-1.06.66s-1.32-.93-1.19-1.65,0.46-1.72-.26-1.85-0.93.46-1.52,0.13-0.86-1-1.39-.66a7,7,0,0,1-2.65,1.12,24.19,24.19,0,0,0-3.44.93c-0.26.07,0.27,1.26-.33,1.65s-2.51,1.65-2.51.86,2.32-2.71,1.59-3.77-4,.4-3.84-0.07,0.4-1.26.07-1.19-3.11,1.39-2.32.4,3.18-1.79,2.38-2.85-2.32-.73-2.65-1.12a1.84,1.84,0,0,0-2.58-.2,19.1,19.1,0,0,0-3.11,5.16c-0.2.73-1.59,2.32-1,3.18s1.52,1.19,1.19,1.79a4.56,4.56,0,0,1-1.92,1.52c-0.79.4-2.85-.6-3.11-0.07s-0.33,1.52.4,1.59,2.45,1.92,1.65,1.59-2.38-.53-2.78-0.07-0.53,1.85-1.39,1.72-0.66-.53-0.93-0.53-0.53,2.05-.79,1.72a1,1,0,0,0-.86-0.66c-0.46.07-1.06,1.39-1.12,0.66s0-1.92.53-2.05,1.39-.86.86-1.06a1.11,1.11,0,0,0-1.59.4,2.55,2.55,0,0,1-1.72,1.26c-0.53,0-2.38-.4-3.24.2s-1.19,1.39-.33,1.26,1.19,0.66.07,1.19-2.78,1.26-3.37,1.46a17.81,17.81,0,0,1-3.31.6c-1.39.13-2.91,2.12-3.31,2.85s-0.53,1.59-1.46,1.19-1.79-1.06-2.05-.4,1.52,1.46.73,1.46-2-.2-1.85.4,1.32,1.65,1,1.85-1.65-1-2.32-.53-1.26,1.52-.6,2.25,2.51,1.19,1.85,1.13-1.85,0-1.32.6,1.72,0.73,1.85,1.19a2.06,2.06,0,0,1,.2,1.19c0,1,.79,2-0.2,1.79S294,331,293,331.62s-1.32,1.59-2.25,1.06-1.06-.73-2.12-0.26a8.19,8.19,0,0,1-4.57.53c-1.26-.4-3.24-1.26-3.84.07s-1.26,2.32-.73,3.37a4.47,4.47,0,0,1,.66,3.31c-0.33,1.26-1.26,2-.4,2.85s3.24,1.19,3.24,2a5.93,5.93,0,0,0,.53,2.51,1.23,1.23,0,0,1-1.32,1.72,2.94,2.94,0,0,1-2.71-1.85c-0.4-1.13-1.06-.53-1.06-1.79s-1.26-1.26-2.65-2.45a2.59,2.59,0,0,0-1.72-.71c-0.58,0-1.07.18-1.46,0.18-0.73,0-2,.6-1.85,1.12s1.26,0.4,1.12,1.06,0.07,1.46-.2,1.46-0.53.66-1.26,0.07a9.91,9.91,0,0,0-1.92-1.65c-0.6-.2-2-0.2-2.05.4a10.52,10.52,0,0,0,.07,2.85c0.2,1,.79.86,1.79,1.65s1.19,1.32,2,1.52a1.83,1.83,0,0,1,1.06,1.85c-0.07.53-.53,1.65-1,1.06s-0.07-1.72-1.06-2-5-1.46-5.23-2.65,0.33-1.26.2-2.12a4.6,4.6,0,0,1,.26-2.58c0.33-.53,1.72-2.05,1.72-3.37s0.46-3.71,0-4.1-0.93-1.06-1.12-.26,0.07,4.76-.33,5.23a9.72,9.72,0,0,1-3.9,1.79c-1.06.07-1.52,1.32-1.72,2s-1.72.79-1.59,1.59,0.86,1.06.86,2.32,1.32,4.1,1.12,4.76a37.84,37.84,0,0,1-2.45,3.84,10.81,10.81,0,0,0-1.12,3.57c0,0.93.53,0.93-.07,1.85s-1.72,2.65-.79,2.78,1.79-.07,2.25.26a2.11,2.11,0,0,0,2.18.2c0.73-.46,1.52-0.53,2.71.4s4.1,2.91,3.84,3.44a3.72,3.72,0,0,0,.07,2.91,1.5,1.5,0,0,1-.07,2.05,4.81,4.81,0,0,0-1.19,1.06c-0.26.4-1.12,1.59-.73,2.32s1.26,1.72,2,1.65,2,1.12.4,0.93-3.44-.86-3.64-2.18,0.73-2.05.79-3.18-0.53-1.65-.13-2.05,1.06,0.07.66-1.06-1.32-2.05-1.32-2.65,0.46-1.46-.13-1.39-5.49.2-6,.79a8.32,8.32,0,0,0-1.13,3c-0.13.93,0.46,1.06,0.33,2.58a4.93,4.93,0,0,1-1.72,3.51,4.7,4.7,0,0,0-1.92,2.05c-0.2.66-1.19,3-2,3.18s-3,1.32-4.17,1.12-0.73,2.71-1.85,2.51-1.26-1.19-2.05-1.52-3.77-.33-4.1-1.06-0.13-1-.79-1.39-1.92-1.19-1.92-1.85,0-1.65.46-1.46,2.25,0,2.58.86a1.64,1.64,0,0,0,1.72,1.12c0.66-.07,3.71-0.26,4.57-0.73s2.71-3.11,3.57-3.84,1.26,0.2,1.92-1.06-0.46-2.18.4-3.31,2.51-2.12,2.25-2.91-2.32-3.24-1.85-4.63a17.38,17.38,0,0,0,.93-3.24c0.2-1.26,1.46-2.32,1.46-3.44a8.65,8.65,0,0,1,.86-3.9c0.79-1.92,1.39-2.51,1.39-3.64a12.11,12.11,0,0,0-.53-3.44c-0.4-1.52-1.19-1.65-.4-2.32s3.9-4.17,4.1-6a12.34,12.34,0,0,1,.73-3.57c0.4-1-1.79-1.32-2.38-2.32s-4.1-1.26-4.43-1.72-0.93-.33-1.79.86-4.24,8-5,8.47-3.77,2.05-4.43,2.05-3.18,3.44-2,3.37,1.79-.13,1.59.46-1.46,3.37-1.65,4,0,2.05-.73,2.05-1-.46-1.46.33-1.26,3.24-.66,2.71a1.06,1.06,0,0,1,1.65-.07c0.6,0.53,1.79,2.05,1.39,2.58s-0.13,4.3.46,4.63,1,0.33.66,0.6-2.85,4.5-3.31,4.1,0.4-.73-0.46-1.72a9,9,0,0,1-1.92-3.9c-0.13-1.12-2.12-2.12-2.25-3s-1.84-1.56-2.33-2.8c-1,.91-2,2-1.64,2.64,0.6,1,1.49,1.89,1.49,2.88a8.35,8.35,0,0,1-.74,2.32c-0.74-.3-1.42-0.55-1.94-0.73-2.08-.69-1.69.6-2.58,1.09s-1.79.2-2.28,1.89-2.28,1-3,1.49a32.51,32.51,0,0,1-6,1.89c-1.39.3-25.11-12.8-26.7-13.7s-2.48.4-3.47,1-8.64-.1-9.33.3h0a6.11,6.11,0,0,0-1.44-1.08c-0.89-.5-4.37.2-4.76-0.5s-1.59-2.48-2.68-4.17a12.15,12.15,0,0,1-2.37-6.3,2.51,2.51,0,0,0-1.07.64c-0.53.6-1.39,2.71-1.39,1.92s0.07-1.19-.2-1.19-1.79.13-1-.33,1.65-.79,1.26-1.72-2-1.46-2-2.51-0.07-1.52-1.26-1.06-3.24,1.59-4,1.19-1.46-1.06-2.45-.86a15.07,15.07,0,0,1-3.77.46c-0.93-.13-1.46,1.26-1.46,2.65a5,5,0,0,1-1.32,3.44c-0.66.53-1.13,1.85-1.46,1s-0.13-.6-1.32-1.19-0.66-1.92-1.26-3-1.32-.46-1.26-1.79-0.46-.93-0.26-2a4.5,4.5,0,0,0-.53-3c-0.53-1-1.46.26-1.85,0.2s-1-.93-1.52-0.33-0.13,2.45-.79,3.24a1.61,1.61,0,0,0,0,2.38c0.73,0.46,1.79.13,1.39,1s-1.39,2.71-1.85,2.71-2.38-.2-2.78-0.73a17.25,17.25,0,0,1-1-2.72,11.24,11.24,0,0,1-1.64,1.46c-0.6.2-.79-0.1-1.39-0.69s-1.09-.1-1.19,1.79-1.19,1.69-2.18,4,0.69,2.58,1,3.77-0.1.6-.79,1.59a3.37,3.37,0,0,0-1,2.88c0,1.89-2.28,2-2.68,2.38a2.58,2.58,0,0,0-.3.52h0a8.62,8.62,0,0,1-2-2.18c-0.17-.42-1.47-0.72-2.76-0.86a3.43,3.43,0,0,1-.37,1.07c-0.4.4-3.51,0.33-4,.4s-0.51-.55-0.48-1c0-.06,0-0.12,0-0.18,0.07-.46.86-1.32,1.06-1.13s0.17-.07.31-0.27a20.92,20.92,0,0,1-1.57-2.08c-0.72-1-.72-0.6-1.55-0.6s-1.2-2.75-2.51-2.75,0.84,1.31,0,1.67-1.43-.6-2.15-0.6-1.19,1.08-2,.6a3.35,3.35,0,0,1-.58-1,0.84,0.84,0,0,1-.63.19c-1.12-.16-3.11,1.26-3.84.26s-0.66-1.52-1.19-1.52-1.39,1.12-2,1.12-1.72-.26-1.26-1.12,1.19-.86,1.32-1.65,2-5,2.51-5.43,0.72-1.6,1-2.31c-0.47-1.28-.9-2.49-1.28-3.55-1.35-.1-2.56-0.25-3.13-0.33a20.84,20.84,0,0,0-5.56,0l-0.81.18L86.65,339a18.86,18.86,0,0,0,3.18,1.24c0.65,0,.5.55-0.2,0.65s-0.94,1.69-1.09,2.23a2,2,0,0,0,.2,2.08c0.65,0.69,2.08.74,1.74,1.69s-0.1,2.88-1,1.69-0.65-2.08-1.59-2.53-4.17-1.74-4.67-2.28-1.46.22-2.17,0.47a3.36,3.36,0,0,1,.23,1.36c-0.2.79-1.79,0.2-2.48,0.69a1,1,0,0,1-.6.17,6.65,6.65,0,0,0-2.67,0c-1.39.5-.89,2.18-2.78,2.78s-1.19,1.39-1.89,2.48-1.29,0-2.28.2-0.69,1.69-.69,2.38-2.48,1.79-3.37,2.28,0.5,1,.4,1.79-1.29,1.79-2.08,2.88-1.5,1.63-2.3,1.33a4.32,4.32,0,0,1-.09.56c-0.2.79,0.89,0.4,1.29,0.69s0,0.3-.4,1.19S62.63,366,63.13,367s-1,1.59-1.09,2.28,0.69,0.79,1.89,1,1.79,1.09,1.29,1.59,0.1,1.79.2,2.38a0.78,0.78,0,0,1,0,.21c0,0.44-.54.65-1.5,1.09s-0.6,1.69-.6,2.08-1.59.3-2.18,0.5-0.6,1-.69,2a5.83,5.83,0,0,1-1.89,3c-0.89.89,1,2.88,1,2.88s-0.89.89-1.49,1.39,1.39,1.59,1.59,2.48-0.6.69-1.09,1.19-0.1,1-.1,1.79c0,0.22-.07.3-0.18,0.31A4.83,4.83,0,0,1,57,392.4c-0.6-.3-1.39.3-2.38,0.2S53.3,391,53.2,389.91,52.51,388.72,52,389s-0.89,2.38-1.19,3.37c-0.18.61-2.09,2.15-3.78,3.51a4.2,4.2,0,0,1,1.1,1.46c0.5,1.39,2.18.2,2.78,0s0.5,0.4.79,1.59,2.78,1.59,3.37,2.18,1.19,2,.6,2.78a5.19,5.19,0,0,0-.64,2.5c0,0.21,0,.41-0.06.58-0.1.79-2-.1-2,0.4s-1.09,1.69-1.69,2.68,2.08,2.38,2.58,3.77c0.23,0.63-.33,1.63-1,2.63a14,14,0,0,1,1.2.75c1.19,0.89,1.09.2,2.48,0.2s0.6,0.6,1.69,1.79,1.49,0.4,3.28.5,3.87,1.49,4,2.68a1.57,1.57,0,0,0,.77,1.38l0-.19a2.7,2.7,0,0,1-.69,2c-0.6.5,0.6,1.29,0.6,1.89s-0.5.79-1.29,1.39,0.3,2.08.2,3-1.39,1.09-2.28,2.48a6.57,6.57,0,0,1-1.69,1.61,7.51,7.51,0,0,1,.9,3c0,0.79,1.59,1.19,1.79,1.79a0.65,0.65,0,0,1-.1.53c1.85,0.92,2.87,1.35,3.77,1.16,1.39-.3,1.39-1,2.28-1a5.82,5.82,0,0,0,1.88-.5h0c0.26,2.1.63,4.29,0.8,5.27,0.3,1.69-2.08,2.18-2.78,2.88s0.6,1.69.69,2.88a3.58,3.58,0,0,1-.79,3.08c-0.79.69-1.59-.2-2.88-0.2s-1.49.5-2.68,1.39,0.79,1.09,1.39,2.28,0.3,1.69-.1,2.68,0.4,1.39.5,2.48c0.06,0.68.9,1.17,2.09,1.63a0.9,0.9,0,0,1,.59-0.44,8.45,8.45,0,0,1,2.58-.5c0.79,0.1,1.69,1,2.08.69s0.2-1.79.69-1.79,0.5,2.28,1.19,2.38c0.27,0,1.14.12,2.14,0.21a1,1,0,0,1,.54-1.3c1.49-.69,4.67.69,5.06,0.4s0.6-.79,1.79-0.2c0.67,0.33,1.15,1.55,1.76,2.81a3,3,0,0,1,2.11-1.23c1.39-.1,3.18.3,2.78-1.39s-1.59-1.59-.4-2.58a6,6,0,0,1,3.57-1.59,2.14,2.14,0,0,0,2-1.09,4.44,4.44,0,0,1,.71-0.82c0.46-.41,1-0.66,1.37-0.18,0.6,0.79,1.29,3.18.69,4.07s0.4,2.18.89,2.48,2,0.2,2.08-.89a4.49,4.49,0,0,1,2.18-3.08c0.89-.3,3.47.79,3.87,0.1s0.5-2.08,1.49-1.79a6.45,6.45,0,0,0,3.57.6c1.47-.28,2.85-1.56,4.23-1.37a2,2,0,0,1,.34.08,2.59,2.59,0,0,1,.48.22,2.86,2.86,0,0,1,1.21,2.66c0,1,.79,1.69,1.49,1.19a3.13,3.13,0,0,1,2.18-.79c0.5,0.2.89,0.1,0.89,0.89s-0.4,2.28.89,2.58,3.67,1.79,3.67,2.88a2.85,2.85,0,0,0,.89,2.48c0.69,0.5,1.29,2.08.79,2.68s-0.69,3-.2,2.38,1.49-2.38,1.79-1.69a14.44,14.44,0,0,0,2,3.28c0.69,0.69.2,2.08,1.79,1.89s1.39-1.49,2.68-1.59,3.08-.6,4.17.69,1.39,3.18,2.38,2.78,1.29-1.29,2.28-1,3.47,0.79,3,1.69-1.29.69-1,1.69,0.6,2.18,1.59,2.58,1.69,2.28,2.68,1.89,2.08-3.08,2.68-1.49,0.2,1.89,2.18,2.68a4.08,4.08,0,0,0,4.27-.5c0.5-.6,2-1.69,2-2.68s-2.08-2-1.89-2.68-2.68-1.79-2.48-2.28-0.88-1.37-1.06-2a0.43,0.43,0,0,1,.17-0.53c0.79-.5,6.95-0.69,6.65-1.39s-1.09-2.78-.6-3.08,0.79-1.49,2.48-.3,3.87,2.18,4.37,1.19-3.67-4-3-4.37,2.18,0.4,2-.5-2.08-1.39-1.49-1.89,1.19-.4,1.09-1.29,0.3-1.59,1.59-.6,2.08,1.59,3.28,1.29,1.29,1.39,2.18,1.09a7.76,7.76,0,0,1,1.89-.33,5,5,0,0,1,2.27.33c1.29,0.6,1.29,1.19,2.08.69a5.38,5.38,0,0,1,3.28-.2c0.6,0.2,1.49,2.08,2.28,1.19s-0.3-1.89,2-1.29a32.43,32.43,0,0,0,5.66,1,26,26,0,0,0,3.47-.4c0.89,0,3.37.79,3.67,0.3s0.6-1.39,1.39-1.29a0.9,0.9,0,0,0,.73-0.32,1.18,1.18,0,0,1,1.35-.47c1.09,0.4,3.77,1.09,4.27,1.69s1,1.75,1.6,2a0.54,0.54,0,0,0,.39,0c0.79-.3,1.79-0.89,2.38-0.2s0.3,1.79.4,2.88,0.69,1.79,0,2.58-2.38,2-1.79,2.68,0.89,1.19,1.49.79,0.5,0.69,1.39.4,1.29-1.89,2.18-.79,0.1,3.47.79,3.57,1.49-1.49,2-1,1.19,2.38,2.28,2.18,1.89-1.09,1.89-.6-1.29.89-1.79,1.59-1.09,2.58-.1,2.58,1.09-1.19,2-.89,1.09,1.89,2.18,1.19,1.49-1.39,2.88-1.39,2.48-.1,2.58-0.89a1.45,1.45,0,0,1,1.21-.85c0.53-.15,1.11-0.25,1.47-0.34,0.79-.2,2.18-0.79,2.88-0.5s1.49-1.39,1.49-.6-2,2.78-1.39,3.67c0.47,0.7,3.26,3.61,4.58,5.11a6.63,6.63,0,0,1,.68.84c0.3,0.6,6.65,20,7.25,20.84s2.08,0.4,2.08-.3,0.5-2.28,1.59-2,1.49,0.3,1.49,1.09-1,1.59.4,1.69,0.79,2.28,2.08,2.18a10.75,10.75,0,0,1,3.57,0c1.59,0.3,1.79-.5,2.58-1s0.6,0.5,1.89-.1,2.38,0.1,3.28.89a7.31,7.31,0,0,1,1.11,2.74,4.79,4.79,0,0,0,1.18,2.22c1.29,1.09,1.79,1,2.68,2.28s0.69,3.47,1.69,3.57,1.29-1.09,2.08-.5,0.79,1.59,2.08,1.09,2.28-2.28,3.08-1.89-0.3,1.09.89,2.18,0.3,1.59,1.19,2.18,1.49,1.19,2.38,1,3.08-.1,3.28-0.89,0.2-1.69,1.09-1.79,3,0.79,3.67.2,0.69-1.19,1.49-1.39,1.59-.1,1.59-0.89a1,1,0,0,0-.15-0.53c-0.17-.29-0.35-0.38.35-0.66a17,17,0,0,0,3.57-1.89c0.5-.5,3.37-1.39,3.87-2.18s1.89-.2,2.28-0.79a2.58,2.58,0,0,1,1.79-1.29c0.69,0,1.79.6,1.79,0s-1-1.59.4-1.39,0.4,1,1.09.89,1.19-1.89,1.89-.89,0.69,1.59,1.69,1.59,3.37-.6,4.27,0,0.69,1.59,1.79,2.88,2.08,1.69,2.68,1.29,2.48,1.39,3.77.4,1.69-1.39,3.67-.1,2.68,0.2,3.67.4,2.28,0.5,2.78-.5,3.08-1.59,3-3.47-1.59-2.18-1.89-4-0.89-3.28-.5-4.07,1.89-3.47,2.18-3.87,1.29-.3,1.29-1.39a3.23,3.23,0,0,1,.15-1.41,0.37,0.37,0,0,1,.35-0.18c0.5,0,2,.89,3.18.89s1.09,1.19,2.78,1,2.78-.5,4.07,0,2.08,1.29,3.47,1.29,2.78-.4,4,0.69,0.89,4.57,1.79,5.36,3.18,2.18,4.37,1.69,2.18,0.6,3.47.1a15,15,0,0,0,3.37-2,9.38,9.38,0,0,1,4.27-1.39c1.19-.1,2.68-1,3.47-0.4s0.69,1.09,1.49.69,0-1.29,1.89-.5,1,1.19,2.58,1.19a3.08,3.08,0,0,0,.93-0.16c1.14-.36,2.05-1.17,2.84-0.54,1,0.79,2.78,3.67,4.07,3.87s2.48-1,4.07-.79a8.74,8.74,0,0,0,5-.79c2.28-.89,3,0,3.77-0.79a9.69,9.69,0,0,1,2.28-2.18c1.29-.79,3.47-1.69,4.57-2.28s2.58-1.09,2.58-2.18a3.62,3.62,0,0,1,.89-2.88,30.48,30.48,0,0,0,3.08-3.18,6,6,0,0,1,3.28-1.59c0.79,0,2.88,2.18,3.87,1.69s2-2.48,3.57-2.48,2.68,1.09,4.47,1.09,4.57,0.2,5.66-.69,1-4.37,2.18-5.06,2.28-1,2.08-2.18a5.55,5.55,0,0,0-1.29-2.18c-0.1-.3.89-1,0.69-2s-1.19-1.19-.69-2.18,1.59-.69.89-2.28a6.15,6.15,0,0,1-.69-4c0.3-1.09,1.39-2.58,1.29-4s-1-1.69-1.19-2.48-0.2-1.69-1.19-1.59-2.68,1.39-3,.4,1-4.86,2-5.86c0.55-.55,1.61-1.31,2.63-2.11a13.28,13.28,0,0,0,2.13-2c1.09-1.39,2.88-2.18,4.86-3s5.06,0.4,6.65-.1,1.19-1.89,2.78-1.89,4.57,0.79,5.26,1.69a11.94,11.94,0,0,0,3.47,2.18c0.79,0.4,1.29,2.88,3.28,3.87s2.78,2.78,3.77,3.47,2.58,1.09,3.08,1.79,2.38,0.79,2.48,1.89a4.24,4.24,0,0,0,1.89,3.28c1.29,0.79,3.37,1.29,4.27,0s0.69-2.38,2-1.89,1.49,1.39,2.88.4,0.2-2.18,2.08-1.09,3.28,1.79,5,.89a2.14,2.14,0,0,1,.84-0.26,3.39,3.39,0,0,0,.45-1.43c-0.1-1.19-1-1.09-.2-1.89a9.62,9.62,0,0,1,.93-0.75c1.1-.82,2.6-1.89,2.45-2.63-0.2-1,.89-0.69,2.38-1.29s3.18-1.09,3.67-.79,1,1.49,2,1.49a9.06,9.06,0,0,0,4.17-1.69c0.69-.69,2.48-1.69,3.37-1.49a1.21,1.21,0,0,1,1.07,1.39,7.41,7.41,0,0,1,1.21,1.68c1.19,1.69,1.69,1,2.58,2.48s-1.89,3.77-1.09,4.27a7.36,7.36,0,0,1,2,2.08c0.11-.47.21-0.93,0.32-1.39,0.5-2.08,1.89-2.48,2.78-2.38a9.5,9.5,0,0,0,4.57-.5c1.29-.69,3.67-1.69,3.08-3.28s-2.18-2.18-1.09-2.78,1.69-.3,1.89-1,1.29-3.08.79-4.37-2.18,1-3.28.1-2.68-.3-2.28-1.29,2.58-1.59,2.18-2.38,0-2.48.69-2.58,3.28,1.29,4,1.69,0.3,3.37.79,3.37a8.34,8.34,0,0,0,2.48-.75,23.35,23.35,0,0,0-.39-2.46c-0.26-1.13-.27-8.21-0.53-9.2s-4-7-4.3-7.74-2.12-1.52-2.18-2.78-4-3.84-4.3-5a36,36,0,0,0-2.12-4.63c-0.53-1.12-.26-2.58-0.26-3.57s-0.86-1.52-.93-2.12-2.12-.33-2.58-0.79-0.73-1.72-1.39-2.32-4.37-.4-3.44-0.86,2.25-.33,2.05-1.26,0.2-2.05-.6-1.85-4.9,1.26-6.62.4a12.54,12.54,0,0,0-4.83-.86c-0.4,0,0,2.18-1.32,2.32s-2.45-.4-1.92.79,2.85,5,2.18,5-1.39-3-1.65-2.51,0.26,1.65-.07,2.58-2.32,4.17-2.65,3.44,1.46-3.64.66-3.64a4,4,0,0,0-2.32.46c-0.4.4-.53,1.85-0.86,2.25s-0.6,1.12-1.06.66a3.28,3.28,0,0,1-.93-2.05,4.54,4.54,0,0,0-1.85-2.65c-0.6-.2-3.37,2.25-4,2.45s-2.32,1.65-3,.79-1.26-2.51-.73-3.24a12.88,12.88,0,0,0,1.59-3.57,44.56,44.56,0,0,1,.6-4.76,21.56,21.56,0,0,0,.53-4.5c0-1.32-.93-5.29-0.73-7.41s0.79-6.95.79-8.14,0.46-1.19.4-2.12-1.32-4-1.32-4.9,0.86-1.92.93-3.44-0.79-3-.2-5.36a8,8,0,0,1,1.79-3.57,12.65,12.65,0,0,1,1.46-2.32,32.43,32.43,0,0,0,4-4c0.46-.86,1.85,0,2.65-0.33s2-.2,1.32-1-1.46-1.72-.46-2.12c0.41-.16,1.13-0.39,1.85-0.69,1-.43,2.06-1,2.06-1.7,0-1.19-.13-1.52.46-1.79s2.85-.93,2.71-1.79-2.05-.6-1.52-1.26,0.93-.4.53-1.12-1.06-1.06-.46-1.79,4.23-1.72,4.83-2.58,0.86-1.85,1.79-2.18,2.12,0.33,2.71-.2,1.59-1.52,1.52-.93-2.51,3.71-2.18,4a2.81,2.81,0,0,0,2.32,0,7.25,7.25,0,0,0,1.52-2.91c0.13-.6,1.46-1,1.46-1.39s-0.26-3.44.2-4.1,2.32-.73,2.32-1a2.07,2.07,0,0,1,.26-1.65c0.53-.79,1.26-2.05.93-2.58s-1.65-.46-2.18.13-0.93,2.91-1.32,2,0-1-1-1.46-1.72-.53-1.52-1,0.13-.6-0.2-1.59a24,24,0,0,1-1.39-5.1,12.82,12.82,0,0,0-1-4.37,17.91,17.91,0,0,0-1.52-3.37,5.16,5.16,0,0,1-.27-4.7c0.66-1,1.39-1,1.46-2.32s1.12-1.13.86-2.85,2.38,0.2,2.45-1.12-0.73-3.44-.2-3,3.44,2.45,3.44,3.24,1.45,0.93,1.52,1.46,0.6-1.06,1.26-.6,1.32,1.72,1.59,1.12,0.79-.73.86-1.72-1.65-6.15-1.85-7.41a18,18,0,0,1-.31-2.11,1.12,1.12,0,0,1,.44-1.13c0.79-.4,1.59-1.06.66-1.12a2.85,2.85,0,0,1-2.05-.53c-0.79-.6-2.25-2.58-3.18-3.18s-0.4-1.52-.07-2.18a3.37,3.37,0,0,0,.73-2.05c-0.13-.79,1.65-1.19,2-1.52s1.26,0.2.73,0.73a2.32,2.32,0,0,0-.46,2.32c0.26,0.93,2,2.05,3,2.65s0.79,2.71,1.92,2.45,2,3,2.58,2.85,1.32-.13,1.32.73-0.73,5.56-.4,6.82,1.32,1.26,1.26,2.45,1.65,2.51,1.65,4,0.66,2.32.93,3.9,0.2,2.78,1.19,3.51a9.58,9.58,0,0,1,2.51,5c0,1.26-.6,2.05.33,3.31s0,1.85-.66,2.58,1.06,2.51.2,2.91-2.25,1.72-1.19,2,2.58,0.26,2.78,1.52,1.52,5.76,1.59,6.49,3,2.38,3.71,3.24c0.23,0.3,1,1.14,1.95,2.13,1.6-.66,2.74-1.29,2.78-1.73,0.1-1.09-.69-2,0.5-2.68s2.88-1.79,2.58-2.88-0.1-2.88-1.59-3.47-1.89,1.29-2.68,1.29-3.37-1.59-3-2.78,2.48-1.39,3.77-2.28a4.36,4.36,0,0,0,1.79-3.57c0-1.19-3-6.05-3.37-6.85S560.12,325.5,561.31,324.2ZM102.6,378.57a1.39,1.39,0,0,1,.3.38l0.2,0.35h0a3.61,3.61,0,0,1,1.58.6c0.43-.6.74-1.16,1-0.88a2.87,2.87,0,0,1,.28,1.63c0,0.2,0,.39,0,0.57,0.09,0.76.67,1.39,0.36,1.7-0.49.49-1.34,1.52-2.15,1.12s-1.79-.4-1.39-0.94,0.49-.58.27-1a4.69,4.69,0,0,1-.67-1.88,6.56,6.56,0,0,0-.06-0.71C102.33,378.92,102.26,378.32,102.6,378.57Zm266,118.94c-1.09-.89-1.79-3.67-2.78-3.28s-1.89,2.38-2.68,1.39-0.2-2-.79-3.18-1.59-1.69-1.29-2.58a1.53,1.53,0,0,1,2-.89c0.6,0.3,1.39,2.28,2.18,1.79s2.28-3.67,3.18-3.08,2.38,4,3.77,3.77,3.57-2.18,4.57-2,1,0.89,1.39,1.69-0.6,4.67-1,5.26-1.69,3.47-3.08,2.48c-0.72-.52-2.18-3-3-3.28S369.74,498.4,368.65,497.51Zm23.82-16.43a25.19,25.19,0,0,1-1.39,2.83c-0.25.15-1,1.59-.6,1.74s1.24,0.84,1,1.14-0.55,1.54-1.24,1.64-1.84,4.71-2.68,5a3.59,3.59,0,0,0-2.18,1.14c-0.45.69-2.08,2.93-2.43,3s-1-.4-1.34.3-0.94,5.41-1.49,5.81-4.17,2.53-5,2.93a3.49,3.49,0,0,1-.65.21,8.41,8.41,0,0,1-3.07.19,0.88,0.88,0,0,1-.69-1.09c0.3-.9,3.52-1.24,4-1.79s2.48-1.79,3.37-3.57,1-2.48,1.54-2.93,3.08-3.08,3.08-3.87-0.15-2.88.45-3.52a5.2,5.2,0,0,0,1.54-1.79c0.25-.79.4-2.33,0.79-2.68s1.59-.94,1.59-1.84c0-.51.31-3.17,0.66-5.58a26.84,26.84,0,0,1,.78-4c0.5-1.19-.3-3,0-4a7.92,7.92,0,0,1,1.24-2.38c0.25-.35,1-0.4,1.09.1s0.65,10.47,1.19,11.27S392.77,480.54,392.47,481.08Zm37,16.33c-0.79,1.29-8.14,6.05-10.22,5.86a19.85,19.85,0,0,1-5.36-1.59c-1.19-.69.2-2.48,0.79-3.08s1.29,2.08,2.48,1.29,2-4.17,2.78-4.67,1.49,0.5,1.89-.69,0.4-3.08,2.68-3.37,4.47,0.1,4.27,1.19-1.29,2.38-.4,3.18S430.29,496.12,429.49,497.41Z" transform="translate(-47.04 -260.67)"/></svg>