<?xml version="1.0" encoding="utf-8"?>
<!-- Generator: Adobe Illustrator 19.2.1, SVG Export Plug-In . SVG Version: 6.00 Build 0)  -->
<svg version="1.1" id="Layer_1" xmlns="http://www.w3.org/2000/svg" xmlns:xlink="http://www.w3.org/1999/xlink" x="0px" y="0px"
	 viewBox="0 0 192.1 94.9" style="enable-background:new 0 0 192.1 94.9;" xml:space="preserve">
<style type="text/css">
	.st0{fill-rule:evenodd;clip-rule:evenodd;}
	.st1{fill-rule:evenodd;clip-rule:evenodd;fill:#2466AF;}
	.st2{fill:#2466AF;}
	.st3{fill-rule:evenodd;clip-rule:evenodd;fill:#B2BFE1;}
	.st4{fill-rule:evenodd;clip-rule:evenodd;fill:#6383C1;}
	.st5{fill-rule:evenodd;clip-rule:evenodd;fill:#124377;}
	.st6{fill-rule:evenodd;clip-rule:evenodd;fill:#1D5593;}
	.st7{fill-rule:evenodd;clip-rule:evenodd;fill:#F4CD30;}
	.st8{fill:#F4CD30;}
	.st9{fill-rule:evenodd;clip-rule:evenodd;fill:#FBE8A9;}
	.st10{fill-rule:evenodd;clip-rule:evenodd;fill:#F7D970;}
	.st11{fill-rule:evenodd;clip-rule:evenodd;fill:#A89022;}
	.st12{fill-rule:evenodd;clip-rule:evenodd;fill:#D2B22B;}
</style>
<g>
	<g>
		<path class="st0" d="M3.5,50.4H0v19.7h3.5V58.4c0-3.8,1.9-5.7,4.9-5.7c2.9,0,4.4,2,4.4,5.7v11.7h3.5V58.2c0-4,2-5.6,5-5.6
			c3.6,0,4.3,2.8,4.3,5.7v11.7h3.5V56.9c-0.1-4.2-2.3-7-6.7-7c-2.2,0-4.9,1.2-6.8,2.9c-1.2-1.6-3.2-2.9-6.3-2.9
			c-2.2,0-4.5,1-6.1,2.9V50.4z M46.8,70.1h3.5V50.4h-3.5v11.5c0,3.8-2.2,6.1-5,6.1c-3.2,0-4.8-2-4.8-5.7V50.4h-3.5v12.7
			c0,5,2.4,7.5,7,7.5c2.6,0,4.3-1,6.3-2.8V70.1z M58.8,50.4h-3.5v19.7h3.5V58.2c0-3.8,2.6-5.7,5.4-5.7c3.2,0,4.8,1.9,4.8,5.6v11.9
			h3.5V57.4c0-5-2.4-7.5-7-7.5c-2,0-4.9,0.9-6.7,2.9V50.4z M91.7,41.1v11.7h-0.1c-1.2-1.9-3.6-2.9-6.3-2.9c-5.4,0-9.1,5-9.1,10.1
			c0,6.3,3.4,10.6,8.7,10.6c3.2,0,5.3-1.7,6.7-3.6h0.1v3.1h3.5V41.1H91.7z M85.6,68c-3.7,0-5.6-4-5.6-8.2c0-4.2,1.7-7.4,5.8-7.4
			c3.9,0,5.9,3.5,5.9,7.2C91.7,64,89.8,68,85.6,68 M108.1,49.9c-5,0-9.7,3.7-9.7,10.1c0,6.1,3.9,10.6,9.7,10.6
			c5.8,0,9.7-4.4,9.7-10.6C117.8,53.6,113.1,49.9,108.1,49.9 M108.1,68c-4.6,0-5.9-4.3-5.9-8c0-3.5,1.5-7.6,5.9-7.6
			c4.4,0,5.9,4,5.9,7.6C114,63.7,112.8,68,108.1,68 M124.6,50.4h-3.5v19.7h3.5V58.4c0-3.8,1.9-5.7,4.9-5.7c2.9,0,4.4,2,4.4,5.7v11.7
			h3.5V58.2c0-4,2-5.6,5-5.6c3.6,0,4.3,2.8,4.3,5.7v11.7h3.5V56.9c-0.1-4.2-2.3-7-6.7-7c-2.2,0-4.9,1.2-6.8,2.9
			c-1.2-1.6-3.2-2.9-6.3-2.9c-2.2,0-4.5,1-6.1,2.9V50.4z M163.1,49.9c-4.4,0-9.3,3.1-9.3,9.9c0,6.9,4.1,10.7,10.2,10.7
			c2,0,4.5-0.8,6.5-2.3l-1-1.9c-1.4,1-3.6,1.7-5.4,1.7c-3.9,0-6.7-3.6-6.7-7.6h13.3C171.1,55.3,169.1,49.9,163.1,49.9 M157.7,58.1
			c0.1-2.5,1.6-5.7,5.4-5.7c3.1,0,4.4,2.6,4.4,5.7H157.7z M175.8,70.1l5.8-8.3l5.9,8.3h4.6l-8.2-10.7l6.9-9h-3.7l-4.9,6.8l-4.8-6.8
			h-4.6l7.1,9.2l-8.2,10.5H175.8z"/>
	</g>
	<g>
		
			<rect x="116.8" y="9.4" transform="matrix(0.9063 -0.4226 0.4226 0.9063 2.9858 56.5237)" class="st1" width="24.3" height="24.3"/>
	</g>
	<g>
		<path class="st2" d="M123,37.9l-0.1-0.2l-10.3-22.2l0.2-0.1l22.2-10.3l0.1,0.2l10.3,22.2l-0.2,0.1L123,37.9z M113,15.7l10.1,21.7
			l21.7-10.1L134.8,5.6L113,15.7z"/>
	</g>
	<g>
		<polygon class="st3" points="136.8,0 134.8,5.4 112.7,15.7 107.4,13.7 		"/>
	</g>
	<g>
		<polygon class="st4" points="112.8,15.7 107.4,13.7 121.1,43.1 123.1,37.7 		"/>
	</g>
	<g>
		<polygon class="st5" points="150.5,29.4 136.8,0 134.8,5.4 145.2,27.6 		"/>
	</g>
	<g>
		<polygon class="st6" points="145.1,27.4 123.1,37.7 121.1,43.1 150.5,29.4 		"/>
	</g>
	<g>
		<rect x="140.1" y="9.2" class="st7" width="8.6" height="8.6"/>
	</g>
	<g>
		<path class="st8" d="M148.8,17.8H140V9.1h8.8V17.8z M140.2,17.6h8.3V9.3h-8.3V17.6z"/>
	</g>
	<g>
		<polygon class="st9" points="150.5,7.3 148.8,9.2 140.1,9.2 138.7,7.8 138.3,7.3 		"/>
	</g>
	<g>
		<polygon class="st10" points="140.1,9.2 138.3,7.3 138.3,19.5 140.1,17.9 		"/>
	</g>
	<g>
		<polygon class="st11" points="150.5,19.5 150.5,7.3 148.7,9.2 148.7,17.9 150.5,19.5 		"/>
	</g>
	<g>
		<polygon class="st12" points="148.7,17.7 140.1,17.7 138.3,19.5 150.5,19.5 		"/>
	</g>
	<g>
		<path d="M8.7,31l-0.2,1.4c0,0-0.1,0-0.2-0.1c-0.9-0.3-1.7-0.5-2.2-0.5c-1,0-1.9,0.3-2.5,1c-0.7,0.7-1,1.5-1,2.5
			c0,1,0.3,1.8,0.9,2.4c0.6,0.6,1.4,0.9,2.4,0.9c0.2,0,0.6-0.1,1-0.2c0.1,0,0.2-0.1,0.2-0.1l0-2.4H5.4v-1.3h3.5v4.8
			c-0.7,0.2-1.3,0.4-1.7,0.5c-0.4,0.1-0.9,0.1-1.3,0.1c-1.6,0-2.9-0.4-3.8-1.3c-0.9-0.9-1.4-2-1.4-3.5c0-1.5,0.5-2.7,1.4-3.6
			c1-0.9,2.3-1.3,3.9-1.3c0.4,0,1,0.1,1.9,0.3C8.2,30.9,8.5,31,8.7,31 M14.8,32v2.8h0.9c0.6,0,1.1-0.1,1.4-0.4
			c0.3-0.2,0.5-0.6,0.5-1c0-0.5-0.2-0.8-0.5-1c-0.3-0.2-0.8-0.3-1.5-0.3H14.8z M13,30.7h3c1.1,0,2,0.2,2.6,0.6
			c0.6,0.4,0.9,1,0.9,1.8c0,0.6-0.2,1.1-0.5,1.5c-0.3,0.4-0.8,0.6-1.4,0.8c0.3,0.1,0.5,0.2,0.6,0.4c0.2,0.2,0.3,0.5,0.5,1l1.3,3.2
			H18L17,37.1c-0.1-0.4-0.3-0.7-0.6-0.8c-0.2-0.2-0.6-0.2-1.1-0.2h-0.6v3.9H13V30.7z M23.1,30.7H25v5.4c0,0.9,0.2,1.6,0.5,2
			c0.3,0.4,0.8,0.6,1.4,0.6c0.7,0,1.1-0.2,1.5-0.7c0.3-0.4,0.5-1.1,0.5-2v-5.3h1.7v5.4c0,1.3-0.3,2.4-0.9,3c-0.6,0.7-1.6,1-2.8,1
			c-1.2,0-2.1-0.3-2.8-1c-0.6-0.7-0.9-1.7-0.9-3V30.7z M36.5,32v3.1h0.8c0.6,0,1.1-0.1,1.4-0.4c0.3-0.3,0.5-0.6,0.5-1.1
			c0-0.5-0.2-0.9-0.5-1.2c-0.3-0.3-0.7-0.4-1.3-0.4H36.5z M34.7,30.7h2.8c1.2,0,2.1,0.2,2.7,0.7c0.6,0.5,0.9,1.2,0.9,2.2
			c0,0.9-0.3,1.6-0.9,2.1c-0.6,0.5-1.5,0.7-2.6,0.7h-1v3.5h-1.8V30.7z M48.4,31.9c-0.8,0-1.4,0.3-1.8,0.9c-0.5,0.6-0.7,1.4-0.7,2.5
			c0,1,0.2,1.9,0.7,2.5c0.5,0.6,1.1,0.9,1.8,0.9c0.8,0,1.4-0.3,1.8-0.9c0.5-0.6,0.7-1.5,0.7-2.5c0-1-0.2-1.9-0.7-2.5
			C49.8,32.2,49.1,31.9,48.4,31.9 M48.4,30.5c1.4,0,2.4,0.4,3.2,1.3c0.8,0.9,1.2,2,1.2,3.5c0,1.5-0.4,2.7-1.2,3.5
			c-0.8,0.9-1.9,1.3-3.2,1.3c-1.4,0-2.4-0.4-3.2-1.3c-0.8-0.9-1.2-2-1.2-3.5c0-1.5,0.4-2.7,1.2-3.5C45.9,30.9,47,30.5,48.4,30.5"/>
	</g>
	<g>
		<path class="st2" d="M1.3,86v7.1h1.1c1.1,0,1.9-0.3,2.5-0.9c0.6-0.6,0.9-1.5,0.9-2.6c0-1.2-0.3-2-0.9-2.6C4.3,86.3,3.4,86,2.3,86
			H1.3z M-0.6,84.5h2.7c0.8,0,1.5,0.1,2.1,0.2c0.6,0.1,1,0.3,1.4,0.6c0.7,0.5,1.2,1.1,1.5,1.8c0.3,0.7,0.5,1.6,0.5,2.6
			c0,1-0.2,1.8-0.5,2.6c-0.3,0.7-0.9,1.3-1.6,1.8c-0.4,0.3-0.9,0.5-1.5,0.6c-0.6,0.1-1.3,0.2-2.2,0.2h-2.6V84.5z M22.7,84.5h5.8v1.5
			h-4v2.7h3.8v1.5h-3.8v3h4.1v1.5h-6V84.5z M49.5,84.7l-0.2,1.6c-0.4-0.2-0.7-0.3-1.1-0.4c-0.4-0.1-0.7-0.1-1-0.1
			c-0.5,0-0.9,0.1-1.2,0.3c-0.3,0.2-0.4,0.5-0.4,0.8c0,0.4,0.5,0.9,1.5,1.5c0.1,0.1,0.2,0.1,0.2,0.1c1,0.5,1.6,1,2,1.5
			c0.3,0.5,0.5,1,0.5,1.7c0,0.9-0.3,1.7-1,2.3c-0.7,0.6-1.6,0.9-2.7,0.9c-0.4,0-1.2-0.2-2.3-0.5c-0.1,0-0.2-0.1-0.3-0.1l0.2-1.7
			c0.5,0.3,1,0.5,1.4,0.6c0.4,0.1,0.7,0.2,1,0.2c0.5,0,0.9-0.1,1.2-0.4c0.3-0.2,0.5-0.6,0.5-1c0-0.5-0.5-1-1.5-1.6
			c-0.1,0-0.1-0.1-0.2-0.1c0,0-0.1-0.1-0.2-0.1c-0.8-0.4-1.3-0.8-1.6-1.2c-0.2-0.2-0.4-0.5-0.5-0.8c-0.1-0.3-0.2-0.7-0.2-1
			c0-0.9,0.3-1.6,1-2.1c0.6-0.5,1.5-0.8,2.5-0.8c0.4,0,1,0.1,1.8,0.4C49.2,84.7,49.4,84.7,49.5,84.7 M66.8,86v7.1h1.1
			c1.1,0,1.9-0.3,2.5-0.9c0.6-0.6,0.9-1.5,0.9-2.6c0-1.2-0.3-2-0.9-2.6C69.8,86.3,69,86,67.9,86H66.8z M64.9,84.5h2.7
			c0.8,0,1.5,0.1,2.1,0.2c0.6,0.1,1.1,0.3,1.4,0.6c0.7,0.5,1.2,1.1,1.5,1.8c0.3,0.7,0.5,1.6,0.5,2.6c0,1-0.2,1.8-0.5,2.6
			c-0.3,0.7-0.9,1.3-1.6,1.8c-0.4,0.3-0.9,0.5-1.5,0.6c-0.6,0.1-1.3,0.2-2.2,0.2h-2.6V84.5z M88.2,84.5H94v1.5h-4v2.7h3.8v1.5h-3.8
			v3h4.1v1.5h-6V84.5z M124.5,84.5h1.5v10.2h-1.7v-8.1l-1.7,1.4l-0.9-1.3L124.5,84.5z M143.2,94.5l0.1-1.6c0.3,0.2,0.5,0.3,0.9,0.4
			c0.3,0.1,0.6,0.1,0.9,0.1c0.9,0,1.5-0.3,2-0.9c0.5-0.6,0.7-1.5,0.7-2.6c-0.2,0.4-0.6,0.7-0.9,0.9c-0.4,0.2-0.8,0.3-1.2,0.3
			c-0.8,0-1.5-0.3-2.1-0.9c-0.5-0.6-0.8-1.4-0.8-2.3c0-1,0.3-1.8,0.9-2.5c0.6-0.7,1.4-1,2.3-1c1.1,0,2,0.4,2.6,1.3
			c0.6,0.9,0.9,2.1,0.9,3.7c0,1.8-0.4,3.2-1.1,4.1c-0.7,1-1.8,1.5-3.2,1.5c-0.3,0-0.7,0-1-0.1C143.9,94.7,143.6,94.6,143.2,94.5
			 M146.2,85.7c-0.5,0-0.9,0.2-1.2,0.5c-0.3,0.3-0.4,0.8-0.4,1.4c0,0.6,0.1,1.1,0.4,1.4c0.3,0.4,0.7,0.5,1.1,0.5
			c0.5,0,0.9-0.2,1.1-0.5c0.3-0.4,0.4-0.8,0.4-1.5c0-0.5-0.1-1-0.4-1.3C147,85.9,146.6,85.7,146.2,85.7 M167.8,89.6
			c-0.4,0-0.8,0.2-1.1,0.5c-0.3,0.4-0.4,0.8-0.4,1.4c0,0.6,0.1,1,0.4,1.4c0.3,0.3,0.7,0.5,1.1,0.5s0.8-0.2,1.1-0.5
			c0.3-0.3,0.4-0.8,0.4-1.3c0-0.6-0.1-1.1-0.4-1.4C168.7,89.8,168.3,89.6,167.8,89.6 M170.8,84.7l-0.2,1.6c-0.3-0.2-0.6-0.3-0.9-0.4
			c-0.3-0.1-0.6-0.1-0.9-0.1c-0.9,0-1.5,0.3-2,0.9c-0.5,0.6-0.7,1.5-0.7,2.6c0.3-0.4,0.6-0.7,0.9-0.9c0.4-0.2,0.8-0.3,1.2-0.3
			c0.8,0,1.5,0.3,2.1,0.9c0.5,0.6,0.8,1.4,0.8,2.3c0,1-0.3,1.8-0.9,2.5c-0.6,0.7-1.4,1-2.3,1c-1.1,0-2-0.4-2.6-1.3
			c-0.6-0.9-0.9-2.1-0.9-3.7c0-1.8,0.4-3.2,1.1-4.1c0.7-1,1.8-1.5,3.2-1.5c0.3,0,0.7,0,1,0.1C170.1,84.5,170.4,84.6,170.8,84.7
			 M186.2,94.5l0.1-1.6c0.3,0.2,0.5,0.3,0.9,0.4c0.3,0.1,0.6,0.1,0.9,0.1c0.9,0,1.5-0.3,2-0.9c0.5-0.6,0.7-1.5,0.7-2.6
			c-0.3,0.4-0.6,0.7-0.9,0.9s-0.8,0.3-1.2,0.3c-0.8,0-1.5-0.3-2.1-0.9c-0.5-0.6-0.8-1.4-0.8-2.3c0-1,0.3-1.8,0.9-2.5
			c0.6-0.7,1.4-1,2.3-1c1.1,0,2,0.4,2.6,1.3c0.6,0.9,0.9,2.1,0.9,3.7c0,1.8-0.4,3.2-1.1,4.1c-0.7,1-1.8,1.5-3.2,1.5
			c-0.3,0-0.7,0-1-0.1C186.9,94.7,186.6,94.6,186.2,94.5 M189.2,85.7c-0.5,0-0.9,0.2-1.2,0.5c-0.3,0.3-0.4,0.8-0.4,1.4
			c0,0.6,0.1,1.1,0.4,1.4c0.3,0.4,0.7,0.5,1.1,0.5c0.5,0,0.9-0.2,1.1-0.5c0.3-0.4,0.4-0.8,0.4-1.5c0-0.5-0.1-1-0.4-1.3
			C190,85.9,189.6,85.7,189.2,85.7"/>
	</g>
</g>
</svg>
