<?xml version="1.0" encoding="utf-8"?>
<!-- Generator: Adobe Illustrator 19.2.1, SVG Export Plug-In . SVG Version: 6.00 Build 0)  -->
<svg version="1.1" id="Capa_1" xmlns="http://www.w3.org/2000/svg" xmlns:xlink="http://www.w3.org/1999/xlink" x="0px" y="0px"
	 viewBox="0 0 94.4 23.9" style="enable-background:new 0 0 94.4 23.9;" xml:space="preserve">
<style type="text/css">
	.st0{fill:#232328;}
</style>
<g>
	<g>
		<path class="st0" d="M14.4,1.3C13.2,0.4,11.5,0,9.2,0H3L0,16.1h5.8l1.1-5.8l1.7,5.8h6l-2.3-6.2c1.3-0.3,2.2-0.8,2.9-1.7
			c0.7-0.9,1-2,1-3.3C16.2,3.3,15.6,2.1,14.4,1.3z M9.8,6.7C9.4,7,8.8,7.2,7.9,7.2H7.4L8,4h0.3C9.1,4,9.6,4.1,10,4.3
			c0.3,0.2,0.5,0.6,0.5,1C10.5,6,10.2,6.5,9.8,6.7z"/>
		<polygon class="st0" points="27.3,10.1 28.1,6 23.1,6 23.4,4.4 28.7,4.4 29.4,0 18.4,0 15.5,16.1 27,16.1 27.8,11.8 22.1,11.8 
			22.4,10.1 		"/>
		<polygon class="st0" points="35.8,6.4 36.1,4.4 40.9,4.4 41.7,0 31,0 28.1,16.1 34,16.1 35,10.6 39.5,10.6 40.3,6.4 		"/>
		<polygon class="st0" points="51.7,10.1 52.4,6 47.5,6 47.8,4.4 53,4.4 53.8,0 42.8,0 39.8,16.1 51.4,16.1 52.2,11.8 46.5,11.8 
			46.8,10.1 		"/>
		<path class="st0" d="M66.9,1.3c-1.2-0.8-3-1.3-5.3-1.3h-6.2l-3,16.1h5.8l1.1-5.8l1.7,5.8h6l-2.3-6.2C66,9.7,67,9.1,67.7,8.2
			c0.7-0.9,1-2,1-3.3C68.7,3.3,68.1,2.1,66.9,1.3z M62.3,6.7c-0.4,0.3-1.1,0.4-2,0.4h-0.4L60.5,4h0.3c0.7,0,1.3,0.1,1.6,0.4
			c0.3,0.2,0.5,0.6,0.5,1C62.9,6,62.7,6.5,62.3,6.7z"/>
		<polygon class="st0" points="94.4,11.8 91.9,11.8 91.9,11.8 86.9,11.8 87.3,10.1 92.2,10.1 92.9,6 88,6 88.3,4.4 93.5,4.4 94.3,0 
			83.3,0 81.3,11.8 74.3,11.8 74.6,10.1 79.6,10.1 80.3,6 75.4,6 75.7,4.4 80.9,4.4 81.7,0 70.7,0 67.7,16.1 85.5,16.1 85.5,16.1 
			86.3,16.1 90.9,16.1 90.9,16.1 91.3,16.1 		"/>
	</g>
	<g>
		<path class="st0" d="M42.5,20.3c-0.1-0.3-0.3-0.4-0.6-0.4c-0.3,0-0.8,0.2-0.8,0.6c-0.1,0.3,0.3,0.5,0.5,0.6l0.3,0.1
			c0.6,0.2,1,0.6,0.9,1.3c-0.1,0.8-0.8,1.3-1.6,1.3c-0.7,0-1.2-0.5-1.1-1.2l0.6-0.1c-0.1,0.5,0.2,0.8,0.7,0.8c0.5,0,0.9-0.4,0.9-0.8
			c0.1-0.5-0.3-0.7-0.6-0.8l-0.3-0.1c-0.5-0.2-0.9-0.5-0.8-1.1c0.1-0.7,0.8-1.1,1.4-1.1c0.5,0,0.8,0.2,1,0.7L42.5,20.3z"/>
		<path class="st0" d="M44.7,23.8h-0.5l0.7-4.3h0.6c1.3,0,1.7,0.5,1.5,1.2c-0.1,0.9-0.9,1.3-1.7,1.3h-0.3L44.7,23.8z M45,21.5h0.2
			c0.5,0,1.2-0.1,1.3-0.8c0.1-0.7-0.5-0.8-1.1-0.8h-0.1L45,21.5z"/>
		<path class="st0" d="M52.5,21.7c-0.2,1.3-1.4,2.2-2.6,2.2c-1.2,0-2.1-1-1.9-2.2c0.2-1.2,1.4-2.2,2.6-2.2
			C51.8,19.4,52.7,20.4,52.5,21.7z M51.9,21.7c0.2-0.9-0.4-1.7-1.4-1.7c-1,0-1.8,0.8-2,1.7c-0.2,1,0.5,1.7,1.4,1.7
			S51.8,22.6,51.9,21.7z"/>
		<path class="st0" d="M56.3,23.8h-0.7l-1-1.8h-0.2l-0.3,1.8h-0.5l0.7-4.3h0.7c0.4,0,0.8,0,1.1,0.2c0.3,0.2,0.5,0.6,0.4,1
			c-0.1,0.6-0.6,1.1-1.2,1.2L56.3,23.8z M54.5,21.6h0.2c0.5,0,1.2-0.1,1.3-0.8c0.1-0.7-0.5-0.8-1.1-0.8h-0.1L54.5,21.6z"/>
		<path class="st0" d="M58.7,23.8h-0.5l0.6-3.8h-1l0.1-0.5h2.6L60.4,20h-1L58.7,23.8z"/>
		<path class="st0" d="M61.5,22.7l-0.7,1.1h-0.6l2.8-4.5l1.3,4.5h-0.6l-0.3-1.1H61.5z M62.8,20.5l-1,1.7h1.5L62.8,20.5z"/>
		<path class="st0" d="M66.2,23.8h-0.5l0.7-4.3h0.5L66.2,23.8z"/>
		<path class="st0" d="M68.6,19.3l2.7,3.4l0.5-3.2h0.5L71.6,24l-2.7-3.4l-0.5,3.2h-0.5L68.6,19.3z"/>
		<path class="st0" d="M74.6,21L74.6,21l-1,2.8h-0.6l1.6-4.5l0.9,3.4l2-3.4l0.2,4.5h-0.6L77.2,21h0l-1.8,2.9L74.6,21z"/>
		<path class="st0" d="M79.9,19.5h2.3L82.2,20h-1.8l-0.2,1.2h1.7l-0.1,0.5h-1.7l-0.3,1.6h1.8l-0.1,0.5h-2.3L79.9,19.5z"/>
		<path class="st0" d="M83.8,19.3l2.7,3.4l0.5-3.2h0.5L86.9,24l-2.7-3.4l-0.5,3.2h-0.5L83.8,19.3z"/>
		<path class="st0" d="M89.8,23.8h-0.5l0.6-3.8h-1l0.1-0.5h2.6L91.4,20h-1L89.8,23.8z"/>
	</g>
</g>
</svg>
