<?xml version="1.0" encoding="utf-8"?>
<!-- Generator: Adobe Illustrator 19.2.1, SVG Export Plug-In . SVG Version: 6.00 Build 0)  -->
<svg version="1.1" id="Capa_1" xmlns="http://www.w3.org/2000/svg" xmlns:xlink="http://www.w3.org/1999/xlink" x="0px" y="0px"
	 viewBox="0 0 237.5 336.1" style="enable-background:new 0 0 237.5 336.1;" xml:space="preserve">
<path d="M172.9,65.6l64.9-64.9L237.1,0l-65.3,65.3c-4.5-1.3-9.2-2.2-14-2.8l40-40l-0.7-0.7l-40.6,40.6c-3.2-0.3-6.5-0.5-9.8-0.5
	c-50.1,0-90.8,40.6-90.8,90.8c0,3.3,0.2,6.6,0.5,9.8L0,218.9l0.7,0.7l56-56c0.6,4.8,1.5,9.4,2.8,14L40,197.2l0.7,0.7l19.2-19.2
	c8.2,27.2,28.8,49,55.2,58.9l-39.7,39.7l0.7,0.7l40-40c4.4,1.6,9,2.8,13.6,3.7L36,335.4l0.7,0.7l94.2-94.2
	c5.1,0.9,10.4,1.4,15.8,1.4c50.1,0,90.8-40.6,90.8-90.8C237.5,111.5,210.3,76.9,172.9,65.6z"/>
</svg>
